<svg width="18" height="18" viewBox="0 0 18 18" fill="none" xmlns="http://www.w3.org/2000/svg">
<path fill-rule="evenodd" clip-rule="evenodd" d="M17.2635 17.2635C17.654 16.8729 17.654 16.2398 17.2635 15.8492L10.1925 8.77825L17.2636 1.70712C17.6541 1.3166 17.6541 0.683431 17.2636 0.292906C16.8731 -0.0976176 16.2399 -0.0976176 15.8494 0.292907L8.77828 7.36404L1.70712 0.292893C1.31658 -0.097631 0.683434 -0.097631 0.2929 0.292893C-0.0976334 0.683417 -0.0976334 1.31658 0.2929 1.70711L7.36407 8.77826L0.293053 15.8493C-0.0974808 16.2398 -0.0974808 16.8729 0.293053 17.2635C0.683586 17.654 1.31673 17.654 1.70727 17.2635L8.77825 10.1925L15.8493 17.2635C16.2398 17.654 16.8729 17.654 17.2635 17.2635Z" fill="black"/>
</svg>
